<svg width="454" height="85" viewBox="0 0 454 85" fill="none" xmlns="http://www.w3.org/2000/svg">
<path d="M100.781 70V17.4304H120.494C124.533 17.4304 127.921 18.1833 130.659 19.6892C133.414 21.1951 135.494 23.2658 136.897 25.9011C138.317 28.5193 139.027 31.4969 139.027 34.8338C139.027 38.205 138.317 41.1997 136.897 43.8179C135.476 46.4361 133.38 48.4981 130.608 50.004C127.836 51.4928 124.422 52.2372 120.366 52.2372H107.301V44.4083H119.083C121.444 44.4083 123.378 43.9976 124.884 43.1762C126.39 42.3548 127.502 41.2253 128.221 39.7879C128.957 38.3504 129.324 36.6991 129.324 34.8338C129.324 32.9685 128.957 31.3257 128.221 29.9054C127.502 28.4851 126.381 27.3813 124.858 26.5941C123.352 25.7899 121.41 25.3877 119.031 25.3877H110.304V70H100.781ZM156.18 17.4304V70H146.888V17.4304H156.18ZM177.081 70.7957C174.583 70.7957 172.332 70.3508 170.33 69.461C168.345 68.554 166.771 67.2192 165.607 65.4566C164.461 63.694 163.887 61.5208 163.887 58.9368C163.887 56.7121 164.298 54.8725 165.12 53.418C165.941 51.9634 167.062 50.7998 168.482 49.927C169.902 49.0543 171.502 48.3955 173.282 47.9505C175.079 47.4885 176.936 47.1548 178.852 46.9495C181.162 46.7099 183.036 46.496 184.474 46.3077C185.911 46.1024 186.955 45.7944 187.605 45.3837C188.273 44.9559 188.606 44.297 188.606 43.4072V43.2532C188.606 41.3194 188.033 39.8221 186.887 38.7611C185.74 37.7002 184.089 37.1697 181.933 37.1697C179.657 37.1697 177.851 37.6659 176.516 38.6585C175.199 39.651 174.309 40.8232 173.847 42.1751L165.171 40.943C165.855 38.5472 166.985 36.5451 168.559 34.9365C170.133 33.3108 172.059 32.0958 174.335 31.2915C176.611 30.4701 179.126 30.0594 181.881 30.0594C183.781 30.0594 185.672 30.2819 187.554 30.7268C189.436 31.1717 191.156 31.9076 192.713 32.9343C194.271 33.944 195.52 35.3215 196.461 37.067C197.419 38.8125 197.899 40.9943 197.899 43.6125V70H188.966V64.5839H188.658C188.093 65.6791 187.297 66.7058 186.271 67.6641C185.261 68.6053 183.986 69.3668 182.446 69.9487C180.923 70.5134 179.135 70.7957 177.081 70.7957ZM179.494 63.9678C181.359 63.9678 182.976 63.5999 184.345 62.8641C185.714 62.1111 186.767 61.1186 187.503 59.8865C188.256 58.6544 188.632 57.3111 188.632 55.8565V51.2105C188.341 51.45 187.845 51.6725 187.143 51.8779C186.459 52.0832 185.689 52.2629 184.833 52.4169C183.977 52.5709 183.13 52.7078 182.292 52.8276C181.453 52.9474 180.726 53.0501 180.11 53.1356C178.724 53.3239 177.483 53.6319 176.388 54.0597C175.293 54.4875 174.429 55.0865 173.796 55.8565C173.162 56.6095 172.846 57.5849 172.846 58.7828C172.846 60.494 173.47 61.786 174.72 62.6587C175.969 63.5315 177.56 63.9678 179.494 63.9678ZM216.534 46.8981V70H207.242V30.5728H216.123V37.2723H216.585C217.492 35.0648 218.938 33.3108 220.923 32.0102C222.926 30.7097 225.398 30.0594 228.342 30.0594C231.063 30.0594 233.433 30.6412 235.452 31.8049C237.488 32.9685 239.063 34.6541 240.175 36.8616C241.304 39.0692 241.861 41.7473 241.843 44.896V70H232.551V46.3334C232.551 43.6981 231.867 41.636 230.498 40.1472C229.146 38.6585 227.272 37.9141 224.876 37.9141C223.251 37.9141 221.805 38.2734 220.538 38.9921C219.289 39.6938 218.305 40.712 217.586 42.0467C216.885 43.3815 216.534 44.9986 216.534 46.8981ZM268.744 70.7701C264.791 70.7701 261.377 69.9487 258.502 68.3059C255.645 66.6459 253.446 64.3015 251.906 61.2726C250.365 58.2266 249.595 54.6415 249.595 50.5174C249.595 46.4618 250.365 42.9024 251.906 39.8392C253.463 36.759 255.636 34.3632 258.425 32.652C261.215 30.9236 264.492 30.0594 268.257 30.0594C270.687 30.0594 272.98 30.453 275.136 31.2402C277.309 32.0102 279.226 33.2081 280.886 34.8338C282.563 36.4595 283.88 38.5301 284.839 41.0456C285.797 43.5441 286.276 46.5216 286.276 49.9784V52.8276H253.959V46.5644H277.369C277.352 44.7847 276.967 43.2018 276.214 41.8157C275.461 40.4125 274.408 39.3087 273.057 38.5044C271.722 37.7002 270.165 37.298 268.385 37.298C266.485 37.298 264.817 37.76 263.379 38.6841C261.942 39.5911 260.821 40.789 260.017 42.2777C259.23 43.7494 258.828 45.3666 258.81 47.1291V52.5966C258.81 54.8897 259.23 56.8576 260.068 58.5004C260.907 60.1261 262.079 61.3753 263.585 62.248C265.091 63.1037 266.853 63.5315 268.873 63.5315C270.224 63.5315 271.448 63.3432 272.543 62.9668C273.638 62.5732 274.588 61.9999 275.392 61.247C276.197 60.494 276.804 59.5614 277.215 58.4491L285.891 59.4245C285.343 61.7175 284.3 63.7197 282.759 65.431C281.236 67.1251 279.286 68.4428 276.907 69.3839C274.528 70.308 271.807 70.7701 268.744 70.7701ZM313.825 30.5728V37.76H291.159V30.5728H313.825ZM296.755 21.1267H306.047V58.141C306.047 59.3902 306.236 60.3485 306.612 61.0159C307.006 61.6662 307.519 62.1111 308.152 62.3507C308.785 62.5903 309.487 62.7101 310.257 62.7101C310.839 62.7101 311.369 62.6673 311.849 62.5817C312.345 62.4962 312.721 62.4192 312.978 62.3507L314.544 69.615C314.047 69.7861 313.337 69.9743 312.413 70.1797C311.506 70.385 310.394 70.5048 309.076 70.539C306.749 70.6075 304.653 70.2567 302.787 69.4866C300.922 68.6994 299.442 67.4845 298.347 65.8417C297.269 64.1989 296.738 62.1454 296.755 59.6812V21.1267ZM332.942 70.7957C330.443 70.7957 328.193 70.3508 326.191 69.461C324.206 68.554 322.632 67.2192 321.468 65.4566C320.321 63.694 319.748 61.5208 319.748 58.9368C319.748 56.7121 320.159 54.8725 320.98 53.418C321.802 51.9634 322.922 50.7998 324.343 49.927C325.763 49.0543 327.363 48.3955 329.143 47.9505C330.94 47.4885 332.796 47.1548 334.713 46.9495C337.023 46.7099 338.897 46.496 340.334 46.3077C341.772 46.1024 342.816 45.7944 343.466 45.3837C344.133 44.9559 344.467 44.297 344.467 43.4072V43.2532C344.467 41.3194 343.894 39.8221 342.747 38.7611C341.601 37.7002 339.949 37.1697 337.793 37.1697C335.517 37.1697 333.712 37.6659 332.377 38.6585C331.059 39.651 330.17 40.8232 329.708 42.1751L321.032 40.943C321.716 38.5472 322.845 36.5451 324.42 34.9365C325.994 33.3108 327.919 32.0958 330.195 31.2915C332.471 30.4701 334.987 30.0594 337.742 30.0594C339.641 30.0594 341.532 30.2819 343.415 30.7268C345.297 31.1717 347.017 31.9076 348.574 32.9343C350.131 33.944 351.381 35.3215 352.322 37.067C353.28 38.8125 353.759 40.9943 353.759 43.6125V70H344.826V64.5839H344.518C343.954 65.6791 343.158 66.7058 342.131 67.6641C341.122 68.6053 339.847 69.3668 338.307 69.9487C336.784 70.5134 334.995 70.7957 332.942 70.7957ZM335.355 63.9678C337.22 63.9678 338.837 63.5999 340.206 62.8641C341.575 62.1111 342.627 61.1186 343.363 59.8865C344.116 58.6544 344.493 57.3111 344.493 55.8565V51.2105C344.202 51.45 343.706 51.6725 343.004 51.8779C342.319 52.0832 341.549 52.2629 340.694 52.4169C339.838 52.5709 338.991 52.7078 338.153 52.8276C337.314 52.9474 336.587 53.0501 335.971 53.1356C334.585 53.3239 333.344 53.6319 332.249 54.0597C331.154 54.4875 330.289 55.0865 329.656 55.8565C329.023 56.6095 328.706 57.5849 328.706 58.7828C328.706 60.494 329.331 61.786 330.58 62.6587C331.83 63.5315 333.421 63.9678 335.355 63.9678ZM363.103 70V30.5728H372.112V37.144H372.523C373.242 34.868 374.474 33.114 376.219 31.8819C377.982 30.6327 379.993 30.0081 382.251 30.0081C382.765 30.0081 383.338 30.0338 383.971 30.0851C384.622 30.1193 385.161 30.1792 385.588 30.2648V38.8125C385.195 38.6756 384.57 38.5558 383.715 38.4531C382.876 38.3333 382.063 38.2734 381.276 38.2734C379.582 38.2734 378.059 38.6413 376.707 39.3772C375.372 40.0959 374.32 41.097 373.55 42.3804C372.78 43.6639 372.395 45.1441 372.395 46.8211V70H363.103ZM398.737 84.7852C397.471 84.7852 396.299 84.6825 395.221 84.4772C394.16 84.2889 393.313 84.0665 392.679 83.8098L394.836 76.5712C396.187 76.9648 397.394 77.153 398.455 77.1359C399.516 77.1188 400.448 76.7851 401.253 76.1348C402.074 75.5017 402.767 74.4407 403.332 72.9519L404.128 70.8214L389.83 30.5728H399.687L408.774 60.3485H409.184L418.297 30.5728H428.179L412.393 74.7744C411.657 76.8621 410.682 78.6504 409.467 80.1392C408.252 81.6451 406.763 82.7916 405 83.5788C403.255 84.3831 401.167 84.7852 398.737 84.7852Z" fill="#FF0099"/>
<path fill-rule="evenodd" clip-rule="evenodd" d="M71.9309 15.3612C64.5543 6.00582 53.1188 0 40.2804 0C28.5282 0 17.9514 5.03266 10.5876 13.0604C18.7882 12.0594 26.2132 12.3154 32.8986 13.6258C39.8116 14.9809 45.8786 17.4532 51.145 20.7705C57.2397 19.3002 63.1916 17.8709 68.8734 16.5257C69.7012 16.3143 70.725 15.924 71.9309 15.3612ZM0.683094 32.8438C1.61015 27.8783 3.44817 23.2333 6.01712 19.089C15.8797 17.285 24.4687 17.3444 31.8847 18.798C36.1281 19.6298 40.0126 20.9228 43.5554 22.604L41.2109 23.1709L41.2102 23.1711C27.6128 26.4592 13.6589 29.8336 0.683094 32.8438ZM0 39.8391C0.00519282 39.358 0.0188194 38.8789 0.0407383 38.402C13.629 35.2642 28.3451 31.7053 42.6167 28.2541C45.1443 27.6428 47.6579 27.0349 50.1489 26.4334C54.9923 29.8159 59.0285 34.0295 62.3235 38.7958C64.2563 41.5917 65.9354 44.5808 67.3702 47.7058C58.5011 51.4885 48.5641 53.1739 37.014 51.8957C26.2894 50.7088 14.0904 46.9571 0 39.8391ZM0.387437 45.9094C3.12451 65.4934 19.9423 80.5657 40.2804 80.5657C53.502 80.5657 65.2358 74.196 72.5805 64.3579C71.8315 60.3473 70.7676 56.3906 69.3741 52.5806C59.7457 56.6752 48.927 58.5169 36.4342 57.1343C25.6903 55.9453 13.7823 52.3802 0.387437 45.9094ZM76.5323 57.8682C78.1939 54.4493 79.3861 50.7601 80.025 46.8843C78.1178 48.1201 76.1633 49.2673 74.1565 50.316C75.0795 52.7894 75.8697 55.3143 76.5323 57.8682ZM74.9497 19.7583C78.4898 25.7253 80.5333 32.6846 80.563 40.1189C79.8005 40.6741 79.031 41.2139 78.2538 41.7375C76.2645 43.0778 74.2242 44.3128 72.1249 45.4294C70.5764 42.0675 68.7592 38.8366 66.659 35.7986C63.8597 31.7493 60.56 28.0484 56.7352 24.8453C61.3195 23.7422 65.7966 22.6705 70.1088 21.6496L70.1286 21.6449L70.1482 21.6399C71.5502 21.2851 73.1714 20.6323 74.9497 19.7583Z" fill="#FF0099"/>
</svg>
