<svg width="1806" height="1080" viewBox="0 0 1806 1080" fill="none" xmlns="http://www.w3.org/2000/svg">
<g clip-path="url(#clip0_50_14)">
<rect width="1806" height="1080" fill="#FF0099"/>
<path fill-rule="evenodd" clip-rule="evenodd" d="M616.925 642.411C536.533 540.453 411.905 475 271.989 475C143.909 475 28.6398 529.847 -51.6132 617.336C37.7598 606.428 118.68 609.217 191.539 623.499C266.878 638.266 332.999 665.211 390.394 701.363C456.816 685.339 521.682 669.763 583.605 655.102C592.627 652.798 603.783 648.544 616.925 642.411ZM-159.555 832.942C-149.452 778.826 -129.421 728.204 -101.424 683.038C6.06221 663.377 99.667 664.024 180.49 679.867C226.735 688.932 269.069 703.023 307.68 721.345C299.177 723.401 290.659 725.461 282.128 727.524C133.937 763.36 -18.1393 800.135 -159.555 832.942ZM-167 909.179C-166.943 903.935 -166.795 898.714 -166.556 893.517C-18.4672 859.32 141.914 820.535 297.45 782.921L297.451 782.921C324.997 776.26 352.391 769.635 379.538 763.079C432.323 799.943 476.311 845.864 512.221 897.809C533.285 928.279 551.585 960.856 567.221 994.913C470.563 1036.14 362.267 1054.51 236.389 1040.57C119.51 1027.64 -13.439 986.753 -167 909.179ZM-162.778 975.335C-132.948 1188.77 50.3376 1353.03 271.989 1353.03C416.081 1353.03 543.959 1283.61 624.005 1176.39C615.841 1132.68 604.248 1089.56 589.061 1048.04C484.127 1092.66 366.221 1112.73 230.071 1097.67C112.981 1084.71 -16.7965 1045.86 -162.778 975.335ZM667.073 1105.67C685.181 1068.41 698.174 1028.2 705.137 985.96C684.352 999.428 663.051 1011.93 641.18 1023.36C651.239 1050.32 659.851 1077.83 667.073 1105.67ZM649.825 690.332C688.406 755.362 710.677 831.206 711 912.228C702.691 918.279 694.304 924.162 685.834 929.868C664.153 944.475 641.918 957.934 619.039 970.103C602.163 933.465 582.359 898.254 559.47 865.145C528.962 821.014 493.002 780.68 451.318 745.772C501.279 733.75 550.071 722.07 597.067 710.944L597.283 710.893L597.497 710.839C612.776 706.971 630.445 699.857 649.825 690.332Z" fill="#010001" fill-opacity="0.06"/>
</g>
<defs>
<clipPath id="clip0_50_14">
<rect width="1806" height="1080" fill="white"/>
</clipPath>
</defs>
</svg>
